<?xml version="1.0" standalone="no"?>
<!DOCTYPE svg PUBLIC "-//W3C//DTD SVG 20010904//EN"
 "http://www.w3.org/TR/2001/REC-SVG-20010904/DTD/svg10.dtd">
<svg version="1.0" xmlns="http://www.w3.org/2000/svg"
 width="512.000000pt" height="512.000000pt" viewBox="0 0 512.000000 512.000000"
 preserveAspectRatio="xMidYMid meet">

<g transform="translate(0.000000,512.000000) scale(0.100000,-0.100000)"
fill="#000000" stroke="none">
<path d="M2300 4494 c-618 -94 -1144 -475 -1422 -1028 -192 -382 -249 -799
-167 -1225 101 -525 443 -999 917 -1272 402 -231 879 -310 1313 -218 52 11
110 22 129 25 24 4 180 -28 492 -100 486 -113 483 -112 527 -65 39 42 29 73
-106 343 l-127 255 80 83 c277 289 442 618 516 1028 20 114 17 499 -5 616
-104 552 -421 1015 -889 1301 -222 135 -454 218 -719 257 -133 20 -408 19
-539 0z m625 -217 c442 -99 809 -348 1056 -716 188 -279 276 -557 286 -896 15
-503 -163 -933 -532 -1290 -59 -56 -96 -101 -101 -119 -6 -25 9 -61 95 -233
89 -179 98 -203 79 -198 -13 3 -180 41 -373 86 l-349 80 -76 -20 c-196 -53
-490 -71 -670 -43 -575 92 -1047 438 -1295 947 -262 538 -219 1179 114 1677
268 401 680 665 1157 743 143 23 468 14 609 -18z"/>
</g>
</svg>
