<?xml version="1.0" standalone="no"?>
<!DOCTYPE svg PUBLIC "-//W3C//DTD SVG 20010904//EN"
 "http://www.w3.org/TR/2001/REC-SVG-20010904/DTD/svg10.dtd">
<svg version="1.0" xmlns="http://www.w3.org/2000/svg"
 width="512.000000pt" height="512.000000pt" viewBox="0 0 512.000000 512.000000"
 preserveAspectRatio="xMidYMid meet">

<g transform="translate(0.000000,512.000000) scale(0.100000,-0.100000)"
fill="#000000" stroke="none">
<path d="M3832 4790 c-385 -70 -677 -406 -685 -790 -1 -52 2 -123 6 -157 l8
-63 -689 -344 -689 -345 -54 56 c-97 99 -210 165 -356 209 -75 23 -108 27
-218 27 -151 1 -224 -14 -352 -73 -104 -48 -162 -88 -238 -165 -103 -103 -176
-227 -217 -371 -32 -113 -32 -315 0 -428 69 -242 230 -431 452 -534 131 -61
203 -76 355 -75 110 0 143 4 218 27 146 44 259 110 356 209 l54 56 689 -345
689 -344 -8 -63 c-48 -377 132 -716 465 -875 376 -179 820 -53 1048 298 156
242 176 541 52 802 -154 322 -496 513 -840 469 -201 -26 -343 -96 -491 -243
l-98 -97 -672 335 c-370 185 -673 337 -675 339 -1 1 5 33 14 71 22 92 22 276
0 368 -9 38 -15 70 -14 71 2 2 305 154 675 339 l672 335 98 -97 c66 -66 122
-111 173 -139 426 -238 949 -73 1158 365 221 466 -29 1010 -531 1153 -83 23
-272 33 -355 19z m257 -325 c225 -53 390 -263 391 -495 1 -301 -285 -546 -582
-500 -274 42 -469 303 -429 573 44 294 331 490 620 422z m-2831 -1410 c258
-61 432 -311 392 -567 -47 -312 -369 -510 -664 -408 -164 56 -300 210 -335
378 -74 355 256 680 607 597z m2792 -1405 c240 -38 431 -260 430 -503 -1 -273
-234 -506 -507 -507 -304 -1 -550 283 -503 582 25 164 133 310 281 381 106 51
187 64 299 47z"/>
</g>
</svg>
