<?xml version="1.0" standalone="no"?>
<!DOCTYPE svg PUBLIC "-//W3C//DTD SVG 20010904//EN"
 "http://www.w3.org/TR/2001/REC-SVG-20010904/DTD/svg10.dtd">
<svg version="1.0" xmlns="http://www.w3.org/2000/svg"
 width="512.000000pt" height="512.000000pt" viewBox="0 0 512.000000 512.000000"
 preserveAspectRatio="xMidYMid meet">

<g transform="translate(0.000000,512.000000) scale(0.100000,-0.100000)"
fill="#000000" stroke="none">
<path d="M2320 5105 c-450 -56 -843 -248 -1166 -570 -586 -585 -753 -1279
-494 -2056 179 -537 550 -1102 1169 -1778 63 -69 242 -254 398 -411 l282 -285
50 0 51 0 221 220 c550 548 928 991 1204 1410 638 969 715 1815 229 2541 -221
330 -508 586 -836 744 -346 167 -733 231 -1108 185z m586 -259 c447 -94 804
-328 1099 -721 330 -439 415 -923 258 -1470 -178 -624 -631 -1276 -1495 -2151
l-208 -212 -208 212 c-393 398 -648 687 -875 991 -555 742 -775 1382 -672
1950 33 187 121 401 235 575 319 484 765 774 1310 850 36 5 148 7 250 5 149
-3 208 -9 306 -29z"/>
<path d="M2390 3885 c-206 -44 -375 -146 -511 -308 -258 -307 -265 -771 -15
-1095 115 -150 278 -258 473 -314 113 -33 333 -32 448 0 313 89 537 314 627
629 19 66 23 102 22 228 0 135 -3 159 -28 240 -74 243 -239 438 -461 545 -55
27 -129 56 -165 65 -89 23 -305 29 -390 10z m380 -260 c206 -76 356 -241 410
-451 87 -338 -124 -687 -466 -774 -338 -87 -687 124 -774 466 -89 347 138 707
495 784 22 5 90 8 150 6 89 -3 124 -9 185 -31z"/>
</g>
</svg>
