<?xml version="1.0" standalone="no"?>
<!DOCTYPE svg PUBLIC "-//W3C//DTD SVG 20010904//EN"
 "http://www.w3.org/TR/2001/REC-SVG-20010904/DTD/svg10.dtd">
<svg version="1.0" xmlns="http://www.w3.org/2000/svg"
 width="512.000000pt" height="512.000000pt" viewBox="0 0 512.000000 512.000000"
 preserveAspectRatio="xMidYMid meet">

<g transform="translate(0.000000,512.000000) scale(0.100000,-0.100000)"
fill="#0075FF" stroke="none">
<path d="M2456 5068 c-50 -52 -579 -670 -772 -903 -676 -816 -1020 -1416
-1110 -1935 -21 -124 -21 -369 1 -515 64 -433 259 -820 569 -1131 309 -308
702 -504 1137 -568 135 -20 419 -21 556 -1 658 93 1225 503 1520 1099 208 419
261 893 147 1301 -96 344 -295 722 -613 1165 -185 258 -424 553 -871 1075
-146 171 -287 338 -315 371 -62 76 -90 94 -151 94 -44 0 -51 -4 -98 -52z"/>
</g>
</svg>
