<?xml version="1.0" standalone="no"?>
<!DOCTYPE svg PUBLIC "-//W3C//DTD SVG 20010904//EN"
 "http://www.w3.org/TR/2001/REC-SVG-20010904/DTD/svg10.dtd">
<svg version="1.0" xmlns="http://www.w3.org/2000/svg"
 width="512.000000pt" height="512.000000pt" viewBox="0 0 512.000000 512.000000"
 preserveAspectRatio="xMidYMid meet">

<g transform="translate(0.000000,512.000000) scale(0.100000,-0.100000)"
fill="#000000" stroke="none">
<path d="M2514 5110 c-12 -4 -48 -39 -82 -77 -110 -125 -655 -766 -768 -903
-668 -813 -982 -1365 -1086 -1905 -17 -90 -17 -403 1 -510 71 -442 259 -814
565 -1121 561 -560 1380 -741 2116 -466 271 101 497 248 711 461 311 312 498
681 570 1126 18 107 18 420 1 510 -66 342 -202 655 -465 1070 -201 317 -479
675 -967 1245 -130 151 -287 336 -349 410 -137 164 -176 189 -247 160z m306
-607 c782 -913 1061 -1292 1280 -1738 152 -310 210 -525 210 -779 0 -733 -489
-1406 -1196 -1645 -490 -165 -1016 -106 -1467 165 -162 97 -363 278 -480 431
-227 297 -357 677 -357 1047 0 264 72 510 249 851 207 400 506 804 1161 1570
113 132 234 275 269 318 35 42 67 77 70 77 4 0 121 -134 261 -297z"/>
</g>
</svg>
