<?xml version="1.0" encoding="utf-8"?>
<!-- Generator: Adobe Illustrator 26.0.0, SVG Export Plug-In . SVG Version: 6.00 Build 0)  -->
<svg version="1.1" id="Camada_1" xmlns="http://www.w3.org/2000/svg" xmlns:xlink="http://www.w3.org/1999/xlink" x="0px" y="0px"
	 viewBox="0 0 1080 1080" style="enable-background:new 0 0 1080 1080;" xml:space="preserve">
<style type="text/css">
	.st0{fill:#2498FD;}
	.st1{fill:#146EEA;}
	.st2{fill:#2394FB;}
	.st3{fill:#1062E5;}
	.st4{fill:#1673EC;}
	.st5{fill:#2190F9;}
	.st6{fill:#1F8AF7;}
	.st7{fill:#108208;}
	.st8{fill:#1A7EF1;}
	.st9{fill:#12A107;}
	.st10{fill:#109306;}
	.st11{fill:#0A6C03;}
	.st12{fill:#1D84F4;}
	.st13{fill:#0C8B03;}
	.st14{fill:#0A6004;}
</style>
<g>
	<g>
		<path class="st0" d="M837.38,574.14c6.52,15.47,13.05,30.93,19.56,46.4c7.46,17.74,14.9,35.49,22.36,53.22
			c3.85,9.14,7.74,18.27,11.94,28.2c-7.47,0-14.36,0-21.25,0c-6.83,0-13.66-0.08-20.49,0.04c-2.29,0.04-3.27-0.6-4.1-2.94
			c-2.84-7.97-6.28-15.74-9.15-23.7c-0.73-2.01-1.55-2.43-3.42-2.42c-21.66,0.05-43.31,0.04-64.97,0.02c-2.72,0-4.36,0.91-5.38,3.79
			c-2.61,7.37-5.71,14.56-8.51,21.87c-0.74,1.93-1.31,3.43-3.95,3.4c-13.15-0.13-26.3-0.06-40.26-0.06
			c3.22-7.72,6.18-15.01,9.27-22.24c8.01-18.75,16.06-37.48,24.14-56.19c0.7-1.61,1.77-3.06,2.67-4.59c1.74-0.51,3.6-0.79,5.22-1.58
			c9.13-4.45,18.09-9.25,27.33-13.46c4.78-2.18,9.26-5.25,14.68-5.88c-0.06,1.33-0.51,2.51-1.01,3.76
			c-5.3,13.27-10.49,26.6-15.82,40.19c14.77,0,29.09-0.02,43.41,0.02c2.77,0.01,4.11-0.26,2.5-3.62c-2.1-4.4-3.53-9.11-5.26-13.69
			c-4.25-11.24-8.51-22.47-12.77-33.71c5.41-2.39,10.98-4.49,16.19-7.26C826.06,580.67,832.6,578.95,837.38,574.14z"/>
		<path class="st1" d="M317.17,574.95c4.95,11.4,9.92,22.8,14.83,34.22c2.68,6.24,5.25,12.54,7.87,18.81
			c-1.12,0.26-2.33,0.32-3.33,0.81c-27.78,13.5-55.54,27.05-83.3,40.6c-1.49,0.73-3.12,1.35-3.18,3.42
			c-5.53-0.81-7.66,2.29-9.15,7.1c-1.97,6.34-4.67,12.45-7.11,18.63c-0.81,2.06-1.87,3.53-4.66,3.49
			c-11.99-0.17-23.98-0.08-35.96-0.06c-1.99,0-3.97,0.07-2.69-2.88c8.74-20.09,17.49-40.18,26.24-60.26
			c0.13-0.3,0.34-0.57,0.51-0.85c1.76,0.19,3.2-0.69,4.69-1.41c12.22-5.94,24.45-11.86,36.65-17.84c2.11-1.04,4.17-2.05,6.61-1.69
			c-2.15,8.45-6.17,16.23-9.07,24.67c15.74,0,31.21,0,46.94,0c-3.81-9.97-7.53-19.6-11.17-29.25c-2.67-7.09-5.97-13.95-7.86-21.33
			c3.34-1.7,6.64-3.5,10.04-5.09C301.78,582.38,309.08,577.85,317.17,574.95z"/>
		<path class="st2" d="M604.09,660.92c10.25,8.85,21.86,11.22,34.68,6.98c10.13-3.35,18.2-14.99,19.37-25.65
			c0.67-6.11,0.47-12.2,1-18.28c2.46,0.33,4.46-0.88,6.57-1.85c11.42-5.27,22.09-12.1,34.09-16.14c0.05,13.32,0.92,26.7-0.06,39.94
			c-1.02,13.76-6.43,26.2-15.87,36.68c-14.45,16.05-32.89,22.04-53.91,22.45c-14.85,0.29-29.2-1.57-42.47-8.39
			c-8.16-4.19-15.86-9.3-20.61-17.65C579.53,673.49,591.84,667.27,604.09,660.92z"/>
		<path class="st3" d="M317.17,574.95c-8.09,2.9-15.39,7.43-23.13,11.07c-3.39,1.6-6.69,3.39-10.04,5.09
			c-1.38-3.01-2.76-6.01-4.38-9.53c-1.35,3.43-2.42,6.29-3.61,9.1c-3.72,8.74-6.33,17.93-10.85,26.34
			c-2.44-0.36-4.49,0.66-6.61,1.69c-12.2,5.99-24.43,11.9-36.65,17.84c-1.49,0.72-2.92,1.6-4.69,1.41
			c3.46-8.35,6.87-16.72,10.39-25.05c8.46-20,16.98-39.98,25.48-59.97c0.13-0.3,0.26-0.6,0.4-0.9c1.98-4.27,2.91-10.14,6.26-12.36
			c3.26-2.17,9-0.67,13.65-0.7c8.16-0.04,16.31,0.13,24.46-0.08c3.05-0.08,4.98,0.71,6.13,3.62
			C308.25,553.4,313.48,563.86,317.17,574.95z"/>
		<path class="st4" d="M496.2,543.17c11.32,2.67,20.83,8.83,30.02,15.6c1.37,1.01,2.32,1.96,0.64,3.97
			c-6.79,8.16-13.32,16.53-19.96,24.82c-1.31,1.63-2.18,2.46-4.49,0.51c-13.07-11.03-28.11-17.28-45.42-15.99
			c-20.96,1.56-36.87,17.89-41.05,36.65c-1.43,6.42-0.4,12.85-1.08,19.24c-2.13-0.18-3.78,1.04-5.57,1.89
			c-11.36,5.37-22.73,10.74-34.09,16.11c-4.2-13.83-4.08-27.86-2-41.99c5.75-2.57,11.57-4.99,17.23-7.75
			c34.2-16.7,68.37-33.47,102.55-50.23C494.28,545.35,495.82,544.9,496.2,543.17z"/>
		<path class="st5" d="M793.07,598.02c-5.42,0.63-9.91,3.7-14.68,5.88c-9.23,4.21-18.2,9.01-27.33,13.46
			c-1.61,0.79-3.47,1.07-5.22,1.58c1.23-5.98,4.3-11.25,6.62-16.78c8.54-20.28,17.5-40.38,26.14-60.61c0.75-1.76,1.21-2.62,3.28-2.6
			c12.66,0.1,25.32,0.1,37.98,0c1.95-0.02,3.07,0.61,3.78,2.31c4.58,10.97,9.16,21.93,13.74,32.9c-4.77,4.81-11.31,6.52-17.07,9.58
			c-5.21,2.77-10.78,4.87-16.19,7.26c-1.24-2.86-2.49-5.72-4.04-9.3C797.58,587.5,795.32,592.76,793.07,598.02z"/>
		<path class="st1" d="M496.2,543.17c-0.38,1.73-1.92,2.19-3.23,2.83c-34.17,16.76-68.34,33.54-102.55,50.23
			c-5.65,2.76-11.48,5.17-17.23,7.75c3.18-16.7,11.03-31.08,23.23-42.67c11.75-11.16,25.92-18.42,41.86-21.99
			c18.34-4.1,36.48-2.94,54.47,2.02C493.98,541.68,495.06,542.55,496.2,543.17z"/>
		<path class="st6" d="M699.8,605.98c-11.99,4.05-22.67,10.88-34.09,16.14c-2.11,0.98-4.11,2.19-6.57,1.85
			c-0.06-27.29-0.1-54.57-0.22-81.86c-0.01-2.31,0.61-3.2,3.06-3.18c11.65,0.11,23.3,0.11,34.94,0.01c2.42-0.02,3.11,0.8,3.09,3.15
			C699.89,563.39,699.86,584.68,699.8,605.98z"/>
		<path class="st7" d="M421,461.2c0.07,16.48,0.29,32.97,0.1,49.44c-0.04,3.88,1.1,4.75,4.72,4.62c7.32-0.27,14.66,0.08,21.98-0.15
			c3.3-0.1,4.56,0.92,4.2,4.22c-0.22,1.97-0.09,3.99-0.02,5.99c0.04,1.09-0.38,2.61,1.06,2.96c1.54,0.37,1.72-1.28,2.14-2.24
			c3.84-8.85,7.61-17.74,11.44-26.59c0.71-1.65,1.64-3.21,2.48-4.81c-0.18,2.45,0.26,3.92,3.31,2.77c2.92-1.09,6.01-1.72,8.99-2.68
			c1.47-0.47,2.84-1.18,3.81,0.72c0.01,0.66,0.17,1.36,0.02,1.98c-1.65,6.7-1.66,6.69,5.01,6.69c3.31,0,6.62-0.08,9.92,0.02
			c2.45,0.08,2.68-0.79,1.94-2.95c-1.39-4.04-3.72-7.74-4.31-12.06c4.69-0.12,8.79-2.36,13.15-3.64c1.41-0.41,2.18-1.38,2-2.94
			c6.58,15.41,13.15,30.82,19.77,46.21c0.88,2.05,0.3,2.68-1.8,2.66c-4.99-0.06-9.99-0.11-14.98,0.02c-2.87,0.07-3-2.17-3.71-3.91
			c-3.65-8.9-3.64-8.91-13.33-8.91c-5.49,0-11,0.23-16.47-0.08c-3.69-0.2-5.62,0.85-6.93,4.53c-2.99,8.41-3.22,8.33-12.06,8.33
			c-18.88,0-37.75-0.09-56.62,0.08c-3.51,0.03-4.47-0.97-4.44-4.46c0.15-21.14,0.15-42.27-0.02-63.41
			c-0.03-3.66,0.82-5.27,4.68-4.69c4.59,0.69,9.38-1.16,13.87,1.03c-4.82,0.02-9.65,0.09-14.47,0.02c-2.23-0.03-3.38,0.65-3.37,3.1
			c0.06,14.97,0.04,29.94,0.02,44.9c0,2.47,0.82,3.32,3.34,2.39c3.42-1.26,6.87-2.58,10.43-3.26c3.4-0.65,4.18-2.37,4.15-5.51
			C420.89,488.14,420.98,474.67,421,461.2z"/>
		<path class="st8" d="M552.17,621.97c-0.06-26.62-0.1-53.24-0.22-79.86c-0.01-2.32,0.61-3.19,3.06-3.17
			c11.98,0.11,23.96,0.11,35.94,0.01c2.41-0.02,3.11,0.78,3.09,3.14c-0.13,20.3-0.16,40.6-0.22,60.89
			c-12.04,5.71-24.08,11.42-36.12,17.14C555.93,620.95,554.29,622.18,552.17,621.97z"/>
		<path class="st6" d="M526.83,646.97c0.05,11.3,0.04,22.59,0.22,33.89c0.04,2.3-0.8,3.89-2.58,4.96
			c-15.79,9.47-32.68,15.7-51.01,18.23c-10.74,1.48-21.43,1.43-31.99-0.28c-6.94-1.13-14.08-2.54-20.3-6.39
			c15.7-7.51,31.43-14.92,47.06-22.57c5.54-2.71,11.48-4.89,15.78-9.68c2.25-1.16,4.28-2.8,6.89-3.21c3.42,0.55,5.97-1.61,8.83-2.81
			C508.86,655.28,517.31,649.93,526.83,646.97z"/>
		<path class="st6" d="M552.17,621.97c2.12,0.21,3.76-1.02,5.54-1.86c12.04-5.71,24.08-11.42,36.12-17.14
			c0.06,9.92-0.12,19.85,0.23,29.77c0.37,10.38,2.27,20.36,10.04,28.18c-12.25,6.34-24.56,12.57-37.21,18.08
			c-7.29-7.27-10.53-16.64-12.71-26.26C551.89,642.67,553.5,632.19,552.17,621.97z"/>
		<path class="st4" d="M250.05,672.8c0.06-2.07,1.69-2.69,3.18-3.42c27.76-13.54,55.52-27.09,83.3-40.6c1-0.49,2.22-0.55,3.33-0.81
			c4.16,9.91,8.29,19.83,12.52,29.72c0.33,0.78,0.7,1.43,0.48,2.27c-12.81,3.93-24.3,10.61-35.87,17.11
			c-1.12-3.4-3.35-4.26-6.97-4.22C290.04,673.03,270.04,672.85,250.05,672.8z"/>
		<path class="st7" d="M572.06,506.43c-4.41-5.54-8.83-11.08-13.29-16.68c-1.56,1.38-0.9,2.97-0.91,4.35
			c-0.07,11.16-0.16,22.32,0.03,33.48c0.06,3.17-0.97,4.07-3.96,3.88c-3.48-0.22-7-0.18-10.49-0.01c-2.69,0.13-3.36-0.98-3.35-3.52
			c0.07-21.82,0.07-43.64-0.01-65.46c-0.01-2.54,0.77-3.8,3.43-3.47c0.16,0.02,0.34,0.03,0.5,0c8.93-1.58,15.1,1.43,20.12,9.44
			c6.48,10.34,14.4,19.77,21.7,29.59c-3.68,0.17-6.83,2.46-10.38,2.83C571.48,501.28,570.93,503.2,572.06,506.43z"/>
		<path class="st9" d="M801.89,489.01c5.67,13.27,11.33,26.56,17.04,39.81c0.93,2.17,0.03,2.61-1.9,2.6
			c-4.99-0.04-9.97-0.11-14.96,0.03c-2.61,0.07-2.78-1.84-3.44-3.48c-3.81-9.35-3.81-9.35-14.02-9.35c-5.32,0-10.65,0.22-15.95-0.07
			c-3.67-0.2-5.64,0.84-6.97,4.51c-3.06,8.44-3.29,8.35-12.52,8.36c-9.99,0-10.04-0.02-6-9.35c3.23-7.44,6.58-14.83,9.88-22.24
			c0.07,2.92,1.75,1.78,3.41,1.55c5.03-0.7,9.46-4.17,14.84-3.19c1.17,1.84-4.5,5.21,0.96,5.81c5.36,0.58,10.83,0.13,16.43,0.13
			c-0.23-4.24-2.79-7.36-3.34-11.08c1.19-0.5,2.35-1.16,3.59-1.47C793.22,490.52,797.18,487.83,801.89,489.01z"/>
		<path class="st10" d="M673.86,489.03c1.11,13.5,1.11,13.5-11.89,13.54c-6.33,0.02-12.65,0.11-18.98,0.03
			c-2.3-0.03-3.13,0.69-3.29,3.1c-0.72,10.51-0.81,10.51,9.71,10.51c8.32,0,16.65,0.12,24.97-0.06c3.25-0.07,4.71,0.54,4.68,4.29
			c-0.08,10.97,0.1,10.97-10.88,10.97c-14.48,0-28.97-0.03-43.45,0.03c-2.42,0.01-4.01-0.08-3.98-3.35
			c0.22-22.27,0.24-44.54,0.33-66.82c0,18.21,0,36.43,0,54.65c0.9-2.62,0.9-5.24,0.91-7.86c0-8.3-0.01-8.35,8.03-10.92
			C644.28,492.59,658.29,486.55,673.86,489.03z"/>
		<path class="st11" d="M391.97,476.26c5.64,17.99-5.13,33.8-23.78,34.79c-4.31,0.23-8.65,0.28-12.96,0.11
			c-2.96-0.12-4.21,0.75-4.04,3.9c0.23,4.31-0.08,8.65,0.1,12.96c0.11,2.54-0.55,3.62-3.28,3.4c-4.94-0.4-11.23,1.97-14.48-0.88
			c-3.11-2.72-0.9-9.09-0.93-13.84c-0.13-17.29-0.08-34.59-0.03-51.88c0-1.6-0.57-3.3,0.45-4.83c0.01,9.93,0.31,19.86-0.08,29.77
			c-0.2,5.04,1.62,5.43,5.66,4.21c4.07-1.23,7.93-3.46,12.41-2.97c-0.35,4.13,1.18,6.17,5.64,5.36c1.61-0.29,3.32-0.03,4.99-0.05
			c10.63-0.15,14.03-3.72,13.68-14.3C381.08,480.73,387.11,480.18,391.97,476.26z"/>
		<path class="st8" d="M375.2,645.97c11.37-5.37,22.73-10.74,34.09-16.11c1.78-0.84,3.43-2.07,5.57-1.89
			c1.98,12.7,7.88,23.28,17.28,31.96c-12.04,5.02-23.43,11.37-35.13,17.09c-0.82,0.4-1.36,1.36-2.03,2.05
			C385.2,669.95,379.34,658.47,375.2,645.97z"/>
		<path class="st8" d="M316.99,677.07c11.58-6.5,23.07-13.18,35.87-17.11c5.99,13.82,11.98,27.63,18.21,41.99
			c-14.56,0-28.45-0.04-42.33,0.05c-1.8,0.01-2.73-0.66-3.3-2.2C322.63,692.23,319.81,684.65,316.99,677.07z"/>
		<path class="st12" d="M394.98,679.08c0.67-0.7,1.21-1.65,2.03-2.05c11.7-5.73,23.09-12.08,35.13-17.09
			c9.43,6.24,19.55,10.42,31.11,10.02c7.21-0.25,13.83-3.26,20.76-4.81c-4.3,4.79-10.24,6.97-15.78,9.68
			c-15.63,7.64-31.37,15.06-47.06,22.57C410.94,693.43,402.24,687.29,394.98,679.08z"/>
		<path class="st7" d="M673.86,489.03c-15.57-2.48-29.57,3.56-43.84,8.11c-8.05,2.57-8.03,2.62-8.03,10.92c0,2.62,0,5.24-0.91,7.86
			c0-18.22,0-36.44,0-54.65c-0.22-2.76,1.85-2.24,3.39-2.25c16.66-0.03,33.31,0.02,49.97-0.06c2.61-0.01,3.36,0.89,3.48,3.46
			c0.54,11.63,0.62,11.63-10.76,11.63c-8,0-15.99,0.08-23.98-0.04c-2.55-0.04-3.38,0.77-3.49,3.4c-0.42,10.15-0.53,10.14,9.67,10.14
			c7,0,13.99-0.06,20.99,0.06C671.54,487.65,673.53,486.5,673.86,489.03z"/>
		<path class="st13" d="M685.25,474.02c-1.5-4.17-0.37-8.48-0.68-12.72c-0.16-2.14,1.27-2.3,2.93-2.3
			c18.63,0.03,37.26,0.03,55.89,0.01c1.64,0,3.11,0.09,2.96,2.26c-0.3,4.24,0.8,8.55-0.66,12.73c-6.85,0.31-13.73-0.76-20.56,0.56
			c0.06,0.33-0.07,0.52-0.4,0.56c-1.66,3.99-0.49,8.17-0.73,12.25c-0.12,2-0.36,3.64-2.51,4.3c-3.48,1.07-6.95,2.22-10.47,3.14
			c-2.52,0.66-4.17-0.01-4.08-3.16c0.14-4.65-0.08-9.31,0.07-13.96c0.09-2.83-1.03-3.81-3.8-3.75
			C697.22,474.08,691.24,474.01,685.25,474.02z"/>
		<path class="st12" d="M526.83,646.97c-9.52,2.96-17.98,8.31-27.11,12.15c-2.87,1.21-5.41,3.36-8.83,2.81
			c0.04-12.62,0.18-25.25,0.04-37.87c-0.04-3.22,0.81-4.25,4.12-4.17c9.46,0.22,18.94,0.18,28.4,0.02c2.85-0.05,3.69,0.83,3.61,3.65
			C526.84,631.36,526.89,639.17,526.83,646.97z"/>
		<path class="st14" d="M351.01,491.02c-4.49-0.49-8.34,1.74-12.41,2.97c-4.04,1.22-5.86,0.83-5.66-4.21
			c0.39-9.91,0.09-19.85,0.08-29.77c0.19-0.27,0.38-0.78,0.57-0.78c13.58,0.09,27.23-1.5,40.7,0.98
			c6.42,1.18,11.88,4.54,14.75,10.95c0.51,0.95,1.02,1.9,1.53,2.85l0.3-0.07c0,0,0.14,0.28,0.14,0.28c0.11,0.33,0.32,0.57,0.62,0.72
			c0.11,0.44,0.23,0.88,0.34,1.33c-4.86,3.92-10.88,4.46-16.65,5.76c-2.07-5.84-6.45-8.1-12.37-8.02c-2.49,0.04-5.01,0.18-7.48-0.05
			c-3.2-0.3-4.49,0.7-4.31,4.11C351.39,482.37,351.09,486.7,351.01,491.02z"/>
		<path class="st3" d="M260.29,523.72c8.8-11.74,17.05-22.77,25.34-33.77c1.3-1.73,2.62-2.2,5.05-1.2
			c8.96,3.67,18.08,6.94,27.19,10.24c2.79,1.01,1.84,2.13,0.34,3.32c-9.57,7.61-19.17,15.17-28.74,22.78
			c-0.67,0.54-1.29,0.92-2.18,0.93C278.5,526.13,269.8,525.28,260.29,523.72z"/>
		<path class="st10" d="M801.89,489.01c-4.71-1.18-8.68,1.51-12.95,2.56c-1.24,0.31-2.4,0.97-3.59,1.47
			c-1.85-4.48-3.71-8.96-5.94-14.36c-2.97,7.14-5.54,13.33-8.11,19.51c-5.38-0.99-9.81,2.49-14.84,3.19
			c-1.67,0.23-3.34,1.38-3.41-1.55c5.46-12.95,10.94-25.89,16.38-38.86c0.59-1.42,1.47-2.13,3.01-1.96c0.16,0.02,0.33,0.01,0.5,0
			c16.26-1.1,16.29-1.11,22.56,13.88C797.73,478.22,799.77,483.64,801.89,489.01z"/>
		<path class="st11" d="M512.93,482.56c0.19,1.56-0.59,2.53-2,2.94c-4.37,1.28-8.47,3.52-13.15,3.64
			c-1.47-3.18-2.93-6.36-4.72-10.24c-2.71,6.09-4.46,11.73-7.86,16.55c-0.96-1.9-2.34-1.18-3.81-0.72
			c-2.98,0.95-6.07,1.58-8.99,2.68c-3.05,1.14-3.49-0.32-3.31-2.77c0,0-0.05-0.41-0.05-0.41s0.33-0.25,0.33-0.25
			c0.24-0.55,0.47-1.1,0.71-1.65l-0.1-0.24c0,0,0.24-0.1,0.24-0.1c0.27-0.61,0.54-1.22,0.8-1.82c0,0,0.07-0.19,0.07-0.19
			c0.79-0.44,0.94-1.16,0.86-1.97c3.67-8.84,7.37-17.67,10.99-26.52c0.72-1.77,1.79-2.61,3.74-2.48c1.81,0.12,3.64,0.02,5.46,0.02
			c12.15,0,12.15,0,15.92,11.96c-0.09,0.82,0.06,1.54,0.85,1.98c0,0,0.08,0.19,0.07,0.19c0.26,0.61,0.52,1.22,0.78,1.83l0.26,0.1
			c0,0-0.1,0.26-0.11,0.26c0.22,0.54,0.45,1.08,0.67,1.62c0.35,0.12,0.45,0.35,0.28,0.68c0.17,0.38,0.33,0.76,0.5,1.15
			c0.2,0.49,0.4,0.98,0.59,1.47c0.25,0.58,0.5,1.15,0.75,1.73l0.29,0.21L512.93,482.56z"/>
		<path class="st13" d="M572.06,506.43c-1.12-3.23-0.57-5.15,3.39-5.56c3.55-0.37,6.7-2.66,10.38-2.83c0,0,0.12,0.17,0.12,0.17
			c0.23,0.28,0.46,0.56,0.69,0.83l0.32,0.15c0,0,0.02,0.35,0.02,0.35c0.12,0.13,0.24,0.28,0.36,0.42c0.4,0.07,0.58,0.3,0.53,0.71
			c0.2,0.77,0.11,1.93,1.15,1.94c1.44,0.01,2.05-1.25,1.89-2.43c-0.56-4.17,2.37-4.94,5.32-5.77c1.59-0.44,3.27-0.67,4.76-1.33
			c3.97-1.75,5.41-0.54,5.04,3.7c-0.25,2.8-0.19,5.65-0.02,8.46c0.37,5.9-0.99,11.88,0.76,17.72c0.78,8.42,0.75,7.98-7.47,8.56
			c-6.33,0.44-10.57-1.32-13.91-6.87c-3.32-5.52-7.57-10.48-11.41-15.68c-0.26-0.34-0.52-0.67-0.78-1.01c0,0-0.18-0.26-0.18-0.26
			c-0.14-0.29-0.33-0.53-0.59-0.73l-0.36-0.16L572.06,506.43z"/>
		<path class="st11" d="M421,461.2c-0.02,13.47-0.11,26.94-0.01,40.41c0.02,3.14-0.75,4.87-4.15,5.51c-3.56,0.68-7.01,2-10.43,3.26
			c-2.53,0.93-3.35,0.08-3.34-2.39c0.02-14.97,0.03-29.94-0.02-44.9c-0.01-2.45,1.14-3.14,3.37-3.1c4.82,0.07,9.65-0.01,14.47-0.02
			C420.92,460.38,420.96,460.79,421,461.2z"/>
		<path class="st9" d="M685.25,474.02c5.99-0.01,11.97,0.07,17.96-0.08c2.77-0.07,3.89,0.92,3.8,3.75
			c-0.15,4.65,0.07,9.31-0.07,13.96c-0.09,3.15,1.56,3.81,4.08,3.16c3.52-0.92,6.98-2.07,10.47-3.14c2.15-0.66,2.4-2.3,2.51-4.3
			c0.24-4.08-0.93-8.26,0.73-12.25c0.03,17.49-0.01,34.98,0.17,52.47c0.03,3.19-1.04,4.1-4.01,3.85c-4.79-0.4-10.89,1.95-14.03-0.91
			c-2.95-2.68-0.81-8.82-0.88-13.42c-0.15-8.99,0.06-17.99-0.09-26.99c-0.08-4.95,2.12-11.3-0.91-14.48
			c-3.07-3.23-9.47-0.67-14.39-1.1C688.81,474.39,686.94,475.11,685.25,474.02z"/>
		<path class="st7" d="M606.77,522.98c-1.75-5.84-0.4-11.82-0.76-17.72c-0.18-2.81-0.23-5.66,0.02-8.46
			c0.38-4.25-1.06-5.45-5.04-3.7c-1.49,0.66-3.17,0.88-4.76,1.33c-2.95,0.82-5.88,1.6-5.32,5.77c0.16,1.18-0.46,2.43-1.89,2.43
			c-1.03-0.01-0.95-1.17-1.15-1.94c3.02-0.29,1.82-2.67,1.83-4.14c0.08-10.99,0.17-21.98-0.12-32.97c-0.1-3.84,1.11-4.69,4.77-4.66
			c12.74,0.12,12.78-0.02,12.73,12.65C607.01,488.7,606.88,505.84,606.77,522.98z"/>
		<path class="st9" d="M725.14,474.56c6.82-1.32,13.71-0.25,20.56-0.56C738.87,475.27,731.98,474.21,725.14,474.56z"/>
		<path class="st11" d="M390.56,474.01c-0.51-0.95-1.02-1.9-1.53-2.85C390.21,471.75,390.26,472.94,390.56,474.01z"/>
		<path class="st7" d="M471.03,490.16c-0.27,0.61-0.54,1.22-0.8,1.82C470.07,491.19,470.4,490.61,471.03,490.16z"/>
		<path class="st7" d="M470.08,492.33c-0.24,0.55-0.47,1.1-0.71,1.65C469.16,493.23,469.42,492.7,470.08,492.33z"/>
		<path class="st7" d="M471.96,488c0.08,0.82-0.07,1.54-0.86,1.97C470.94,489.12,471.33,488.51,471.96,488z"/>
		<path class="st7" d="M512.73,482c-0.25-0.58-0.5-1.15-0.75-1.73C512.71,480.64,512.91,481.24,512.73,482z"/>
		<path class="st7" d="M511.38,478.8c-0.17-0.38-0.33-0.77-0.5-1.15C511.54,477.83,511.69,478.22,511.38,478.8z"/>
		<path class="st7" d="M510.61,476.98c-0.22-0.54-0.45-1.08-0.67-1.62C510.6,475.72,510.82,476.26,510.61,476.98z"/>
		<path class="st7" d="M509.78,474.99c-0.26-0.61-0.52-1.22-0.78-1.83C509.64,473.61,509.93,474.21,509.78,474.99z"/>
		<path class="st7" d="M508.92,472.97c-0.8-0.44-0.94-1.16-0.85-1.98C508.71,471.5,509.07,472.13,508.92,472.97z"/>
		<path class="st7" d="M586.64,499.04c-0.23-0.28-0.46-0.56-0.69-0.83C586.18,498.49,586.41,498.76,586.64,499.04z"/>
		<path class="st7" d="M587.33,499.96c-0.11-0.15-0.23-0.29-0.36-0.42c0,0,0.35,0.07,0.35,0.07L587.33,499.96z"/>
		<path class="st7" d="M572.45,506.99c0.26,0.19,0.45,0.44,0.59,0.73C572.84,507.47,572.65,507.23,572.45,506.99z"/>
		<path class="st7" d="M573.22,507.97c0.26,0.34,0.52,0.67,0.78,1.01C573.73,508.65,573.47,508.31,573.22,507.97z"/>
		<path class="st11" d="M391.62,474.94c-0.31-0.16-0.51-0.4-0.62-0.72C391.61,474.11,391.72,474.43,391.62,474.94z"/>
	</g>
</g>
</svg>
